/* XPM */
static char * status_icon_xpm[] = {
"32 32 213 2",
"  	c None",
". 	c #D5C648",
"+ 	c #D5C547",
"@ 	c #FDF9CE",
"# 	c #D4C648",
"$ 	c #D4C547",
"% 	c #FAF3BB",
"& 	c #EFE48E",
"* 	c #E2D358",
"= 	c #DECE48",
"- 	c #D3C547",
"; 	c #FDF8CE",
"> 	c #FAF2B8",
", 	c #E2D357",
"' 	c #F8F5DA",
") 	c #D4C447",
"! 	c #D2C446",
"~ 	c #FDF8CD",
"{ 	c #FAF2B5",
"] 	c #D3C447",
"^ 	c #D2C345",
"/ 	c #FDF8CC",
"( 	c #F9F1B2",
"_ 	c #D2C346",
": 	c #D1C345",
"< 	c #F9F0AE",
"[ 	c #000000",
"} 	c #040403",
"| 	c #1D1C14",
"1 	c #5D5A41",
"2 	c #D6CF96",
"3 	c #EEE386",
"4 	c #E2D356",
"5 	c #D1C244",
"6 	c #D0C144",
"7 	c #FDF8CB",
"8 	c #F9EFAA",
"9 	c #2E2C20",
"0 	c #9F986C",
"a 	c #999368",
"b 	c #686447",
"c 	c #070705",
"d 	c #11100C",
"e 	c #DBD296",
"f 	c #D0C145",
"g 	c #CFC144",
"h 	c #FDF8CA",
"i 	c #F8EFA5",
"j 	c #484630",
"k 	c #A8A26F",
"l 	c #726E4C",
"m 	c #CFC143",
"n 	c #D3C44D",
"o 	c #FDF7C7",
"p 	c #F8EEA0",
"q 	c #48462F",
"r 	c #F2E89C",
"s 	c #4F4B2F",
"t 	c #F7EA8D",
"u 	c #F6E987",
"v 	c #F6E882",
"w 	c #F6E77E",
"x 	c #F5E77A",
"y 	c #FCF6C1",
"z 	c #CEC043",
"A 	c #CFC146",
"B 	c #F8ED9B",
"C 	c #48452D",
"D 	c #F7EC95",
"E 	c #F7EA8B",
"F 	c #CABF6B",
"G 	c #625C2F",
"H 	c #F5E676",
"I 	c #FCF6C0",
"J 	c #CDBF42",
"K 	c #CCBE41",
"L 	c #F7EC96",
"M 	c #434029",
"N 	c #E3D781",
"O 	c #E2D578",
"P 	c #DCD06E",
"Q 	c #ACA253",
"R 	c #262412",
"S 	c #010100",
"T 	c #BDB15B",
"U 	c #CDBF45",
"V 	c #FDF7C5",
"W 	c #F7EA8F",
"X 	c #F7EB8F",
"Y 	c #F6EA8F",
"Z 	c #1E1C0E",
"` 	c #A69C4F",
" .	c #F5E574",
"..	c #F4E574",
"+.	c #FCF6BF",
"@.	c #CDBF44",
"#.	c #CFC147",
"$.	c #FCF6C2",
"%.	c #F6E888",
"&.	c #F6E889",
"*.	c #F6E884",
"=.	c #F5E67D",
"-.	c #343118",
";.	c #B2A752",
">.	c #B8AC55",
",.	c #D1C461",
"'.	c #F2E370",
").	c #F4E472",
"!.	c #F4E471",
"~.	c #F3E471",
"{.	c #FCF5BC",
"].	c #CEC146",
"^.	c #D0C34E",
"/.	c #FCF5BD",
"(.	c #F5E680",
"_.	c #F4E57B",
":.	c #F2E373",
"<.	c #F3E36E",
"[.	c #474220",
"}.	c #F3E26E",
"|.	c #F3E26F",
"1.	c #F2E36E",
"2.	c #FBF4B8",
"3.	c #D0C24D",
"4.	c #D3C555",
"5.	c #FAF2B7",
"6.	c #F1E178",
"7.	c #EFE071",
"8.	c #EFDE6B",
"9.	c #EFDE69",
"0.	c #EEDE69",
"a.	c #46411F",
"b.	c #EFDF6A",
"c.	c #EEDE6A",
"d.	c #EFDE6A",
"e.	c #EEDF69",
"f.	c #EFDF69",
"g.	c #F9F2B2",
"h.	c #D2C453",
"i.	c #D3C85C",
"j.	c #F7EFAE",
"k.	c #EBDC6E",
"l.	c #EBDB69",
"m.	c #EAD965",
"n.	c #EADA64",
"o.	c #E9DA64",
"p.	c #EAD963",
"q.	c #44401D",
"r.	c #E9DA63",
"s.	c #EAD964",
"t.	c #EADA63",
"u.	c #F7EEAB",
"v.	c #D3C65C",
"w.	c #D6CA65",
"x.	c #F4EBA4",
"y.	c #E8D663",
"z.	c #E6D55F",
"A.	c #E7D55E",
"B.	c #E7D55F",
"C.	c #E6D55E",
"D.	c #433E1B",
"E.	c #E6D45F",
"F.	c #F4EAA1",
"G.	c #D6C965",
"H.	c #D9CE6F",
"I.	c #F0E698",
"J.	c #E3D15B",
"K.	c #E2D15A",
"L.	c #E2D25A",
"M.	c #E2D159",
"N.	c #423D1A",
"O.	c #E3D15A",
"P.	c #E2D259",
"Q.	c #E3D159",
"R.	c #F1E697",
"S.	c #E1D57C",
"T.	c #EFE28B",
"U.	c #E4D156",
"V.	c #E5D256",
"W.	c #E4D157",
"X.	c #E4D257",
"Y.	c #E4D256",
"Z.	c #BEB038",
"`.	c #E8DD88",
" +	c #EEE07F",
".+	c #E6D354",
"++	c #E6D355",
"@+	c #E6D255",
"#+	c #EEDF7F",
"$+	c #BEB039",
"%+	c #C0B238",
"&+	c #EFE597",
"*+	c #EDDD71",
"=+	c #E8D551",
"-+	c #E8D452",
";+	c #E8D552",
">+	c #E8D451",
",+	c #E9D452",
"'+	c #EFE697",
")+	c #C1B23A",
"!+	c #F5ECA6",
"~+	c #EDDB61",
"{+	c #EBD64F",
"]+	c #EAD650",
"^+	c #EAD64F",
"/+	c #EBD650",
"(+	c #EAD54F",
"_+	c #C1B239",
":+	c #C1B238",
"<+	c #F9F2B5",
"[+	c #FAF3B8",
"}+	c #F9F1B5",
"|+	c #847926",
"                                                                ",
"                                                                ",
"                                                                ",
"                                                                ",
"        . . . . . . . . . . . . . . . . . . . . . . . .         ",
"        + @ @ @ @ @ @ @ @ @ @ @ @ @ @ @ @ @ @ @ @ @ @ #         ",
"        $ @ % % % % % % % % % % % % % % % & * = * & @ $         ",
"        - ; > > > > > > > > > > > > > > > , ' = ' , ; )         ",
"        ! ~ { { { { { { { { { { { { { { { = = ' = = ~ ]         ",
"        ^ / ( ( ( ( ( ( ( ( ( ( ( ( ( ( ( , ' = ' , / _         ",
"        : / < < < < < < [ [ [ [ } | 1 2 < 3 4 = 4 3 / 5         ",
"        6 7 8 8 8 8 8 8 [ 9 0 0 a b c d e 8 8 8 8 8 7 f         ",
"        g h i i i i i i [ j i i i i k [ l i i i i i h m         ",
"        n o p p p p p p [ q p p p p r [ s t u v w x y z         ",
"        A o B B B B B B [ C B B D E F [ G H H H H H I J         ",
"        K o L L L L L L [ M N O P Q R S T H H H H H I K         ",
"        U V W X W Y W Y [ [ [ [ [ [ Z `  . ..... . .+.@.        ",
"        #.$.%.%.&.%.*.=.[ -.;.;.>.,.'.).!.).!.~.~.!.{.].        ",
"        ^./.(.(.(._.:.<.[ [.<.<.}.<.<.<.|.<.}.|.1.<.2.3.        ",
"        4.5.6.6.7.8.9.0.[ a.9.0.b.c.d.e.9.d.9.9.c.f.g.h.        ",
"        i.j.k.l.m.n.o.p.[ q.r.n.o.s.p.p.n.n.t.n.n.s.u.v.        ",
"        w.x.y.z.A.B.C.C.[ D.C.A.C.z.z.z.z.A.E.B.z.A.F.G.        ",
"        H.I.J.K.K.K.L.M.[ N.O.M.P.M.K.M.L.M.K.K.M.Q.R.H.        ",
"        S.T.U.V.U.U.W.X.Y.U.W.Y.U.W.V.U.W.U.V.U.U.U.T.S.        ",
"      Z.`. +.+++.+.+++++.+.+++++.+.+++.+.+@+++.+.+++#+`.$+      ",
"      %+&+*+=+-+-+-+-+;+=+-+-+-+>+-+-+,+-+-+-+>+-+-+*+'+%+      ",
"      )+!+~+{+]+]+^+^+/+(+]+/+/+/+]+^+{+/+]+^+]+]+]+~+!+_+      ",
"      :+<+> [+[+[+[+[+[+[+[+[+> > [+> [+[+[+[+> [+[+> }+:+      ",
"      |+|+|+|+|+|+|+|+|+|+|+|+|+|+|+|+|+|+|+|+|+|+|+|+|+|+      ",
"                                                                ",
"                                                                ",
"                                                                "};
